<svg width="134" height="48" viewBox="0 0 134 48" xmlns="http://www.w3.org/2000/svg">
  <path d="M41.8 16.72h4.44c1.907 0 3.347.267 4.32.8.973.533 1.46 1.473 1.46 2.82 0 .813-.193 1.5-.58 2.06-.373.56-.913.9-1.62 1.02v.1c.48.093.913.26 1.3.5s.693.587.92 1.04c.227.453.34 1.053.34 1.8 0 1.293-.467 2.307-1.4 3.04-.933.733-2.213 1.1-3.84 1.1H41.8V16.72zm3.02 5.66h1.76c.88 0 1.487-.14 1.82-.42.347-.28.52-.687.52-1.22 0-.547-.2-.94-.6-1.18-.4-.24-1.033-.36-1.9-.36h-1.6v3.18zm0 2.4v3.72h1.98c.907 0 1.54-.173 1.9-.52.36-.36.54-.833.54-1.42 0-.533-.187-.96-.56-1.28-.36-.333-1.02-.5-1.98-.5h-1.88zm14.678-4.9c1.506 0 2.7.433 3.58 1.3.88.853 1.32 2.073 1.32 3.66v1.44h-7.04c.026.84.273 1.5.74 1.98.48.48 1.14.72 1.98.72.706 0 1.346-.067 1.92-.2a9.735 9.735 0 001.78-.66v2.3c-.534.267-1.1.46-1.7.58-.587.133-1.3.2-2.14.2-1.094 0-2.06-.2-2.9-.6a4.593 4.593 0 01-1.98-1.86c-.48-.827-.72-1.867-.72-3.12 0-1.28.213-2.34.64-3.18.44-.853 1.046-1.493 1.82-1.92.773-.427 1.673-.64 2.7-.64zm.02 2.12c-.574 0-1.054.187-1.44.56-.374.373-.594.953-.66 1.74h4.18c-.014-.667-.187-1.213-.52-1.64-.334-.44-.854-.66-1.56-.66zm10.756 9.2c-1.213 0-2.207-.473-2.98-1.42-.76-.96-1.14-2.367-1.14-4.22 0-1.867.387-3.28 1.16-4.24.773-.96 1.787-1.44 3.04-1.44.787 0 1.433.153 1.94.46.507.307.907.687 1.2 1.14h.1a18.89 18.89 0 01-.14-.92 9.842 9.842 0 01-.08-1.26v-3.5h2.98V31h-2.28l-.58-1.42h-.12c-.293.453-.687.84-1.18 1.16-.493.307-1.133.46-1.92.46zm1.04-2.38c.827 0 1.407-.24 1.74-.72.333-.493.507-1.227.52-2.2v-.32c0-1.067-.167-1.88-.5-2.44-.32-.56-.92-.84-1.8-.84-.653 0-1.167.287-1.54.86-.373.56-.56 1.373-.56 2.44s.187 1.873.56 2.42c.373.533.9.8 1.58.8zm12.636-8.96c1.467 0 2.587.32 3.36.96.787.627 1.18 1.593 1.18 2.9V31h-2.08l-.58-1.48h-.08c-.466.587-.96 1.013-1.48 1.28-.52.267-1.233.4-2.14.4-.973 0-1.78-.28-2.42-.84-.64-.573-.96-1.447-.96-2.62 0-1.16.407-2.013 1.22-2.56.814-.56 2.034-.867 3.66-.92l1.9-.06v-.48c0-.573-.153-.993-.46-1.26-.293-.267-.706-.4-1.24-.4a5.15 5.15 0 00-1.56.24c-.507.147-1.013.333-1.52.56l-.98-2.02a8.58 8.58 0 011.94-.72 9.54 9.54 0 012.24-.26zm1.58 6.08l-1.16.04c-.96.027-1.627.2-2 .52s-.56.74-.56 1.26c0 .453.133.78.4.98.267.187.614.28 1.04.28.64 0 1.18-.187 1.62-.56.44-.387.66-.927.66-1.62v-.9zM94.52 31h-2.98V15.8h2.98V31zm4.614-15.2c.44 0 .82.107 1.14.32.32.2.48.58.48 1.14 0 .547-.16.927-.48 1.14-.32.213-.7.32-1.14.32-.453 0-.84-.107-1.16-.32-.306-.213-.46-.593-.46-1.14 0-.56.154-.94.46-1.14.32-.213.707-.32 1.16-.32zm1.48 4.28V31h-2.98V20.08h2.98zM111.328 31h-8.62v-1.76l5.06-6.88h-4.76v-2.28h8.14v1.94l-4.92 6.7h5.1V31zm9.766 0h-8.62v-1.76l5.06-6.88h-4.76v-2.28h8.14v1.94l-4.92 6.7h5.1V31zm6.645-11.14c1.467 0 2.587.32 3.36.96.787.627 1.18 1.593 1.18 2.9V31h-2.08l-.58-1.48h-.08c-.466.587-.96 1.013-1.48 1.28-.52.267-1.233.4-2.14.4-.973 0-1.78-.28-2.42-.84-.64-.573-.96-1.447-.96-2.62 0-1.16.407-2.013 1.22-2.56.814-.56 2.034-.867 3.66-.92l1.9-.06v-.48c0-.573-.153-.993-.46-1.26-.293-.267-.706-.4-1.24-.4-.533 0-1.053.08-1.56.24-.506.147-1.013.333-1.52.56l-.98-2.02a8.6 8.6 0 011.94-.72 9.542 9.542 0 012.24-.26zm1.58 6.08l-1.16.04c-.96.027-1.626.2-2 .52-.373.32-.56.74-.56 1.26 0 .453.134.78.4.98.267.187.614.28 1.04.28.64 0 1.18-.187 1.62-.56.44-.387.66-.927.66-1.62v-.9z"/>
  <path d="M3.383 22.516a2 2 0 00-1.285 2.52l4.945 15.217a2 2 0 002.52 1.284l12.364-4.017c5.252-1.707 8.127-7.348 6.42-12.6a10.038 10.038 0 00-.912-2.02 9.956 9.956 0 01-4.152 2.613l-12.364 4.018a2 2 0 01-2.52-1.284l-2.163-6.658-2.853.927z"/>
  <path d="M27.436 22.9a9.955 9.955 0 01-4.153 2.613l-12.364 4.018a2 2 0 01-2.52-1.284l-2.163-6.658 9.51-3.09c4.533-1.473 9.356.466 11.69 4.402z"/>
  <path d="M4.739 10.51a2 2 0 00-1.284 2.52l2.781 8.559 9.51-3.09c4.534-1.473 9.357.466 11.69 4.402a9.998 9.998 0 002.267-9.989c-1.706-5.252-7.348-8.127-12.6-6.42L4.739 10.51z"/>
</svg>
